<svg width="305" height="130" viewBox="0 0 305 130" fill="none" xmlns="http://www.w3.org/2000/svg">
<path d="M375.612 102.845H8.01513M339.066 97.1008L355.435 85.8481H370.725L375.172 80.7659H389.543L376.541 98.7665C376.541 98.7665 372.724 105.836 379.469 107.104C379.469 107.104 386.654 106.678 386.654 111.77C386.654 111.77 385.315 123.24 361.771 124.499C338.216 125.767 77.1593 127.055 77.1593 127.055C77.1593 127.055 37.2358 129.193 35.2071 120.884C35.2071 120.884 33.868 117.269 37.2458 115.376C37.2458 115.376 40.6136 107.937 27.3624 108.363C27.3624 108.363 23.1052 105.808 23.7747 126.42H15.2603V108.997H23.335V106.016C23.335 106.016 3.59811 109.631 0.450195 89.4633V76.9424H228.549C228.549 76.9424 232.586 93.5613 254.902 97.1103H339.096L339.066 97.1008Z" stroke="white" stroke-width="0.78" stroke-miterlimit="10"/>
<path d="M21.9053 83.8613H29.4103V80.5205H21.9053V83.8613ZM32.7481 83.8613H40.2531V80.5205H32.7481V83.8613ZM43.5509 83.8613H51.056V80.5205H43.5509V83.8613ZM58.621 83.8613H66.126V80.5205H58.621V83.8613ZM70.0534 83.8613H77.5584V80.5205H70.0534V83.8613Z" stroke="white" stroke-width="0.78" stroke-miterlimit="10"/>
<path d="M168.998 93.7031H132.542V100.025H168.998V93.7031Z" stroke="white" stroke-width="0.78" stroke-miterlimit="10"/>
<path d="M120.56 80.5205H84.1045V86.8425H120.56V80.5205Z" stroke="white" stroke-width="0.78" stroke-miterlimit="10"/>
<path d="M35.6359 121.934H31.7285V129.212H29.0303V110.89H31.3187V118.565H35.0663" stroke="white" stroke-width="0.78" stroke-miterlimit="10"/>
<path d="M63.5779 53.6421L47.0788 76.9426M63.4479 59.0839L51.216 76.7533M59.4106 76.7533V68.6521M59.6305 68.4723H0.389648V76.5735M138.578 49.9322H107.968M80.8664 55.658H107.948V48.5504L108.778 45.9952H137.509L141.037 49.9417H138.588V57.4372L132.362 58.8189V76.9426M80.8664 76.7533H83.9843V45.7207H80.8664V76.7533ZM89.4807 68.3587H97.1056V64.592H89.4807V68.3587ZM89.4807 62.0651H97.1056V58.2984H89.4807V62.0651ZM103.621 68.3587H111.246V64.592H103.621V68.3587ZM103.621 62.0651H111.246V58.2984H103.621V62.0651ZM119.191 68.3587H126.816V64.592H119.191V68.3587ZM119.191 62.0651H126.816V58.2984H119.191V62.0651Z" stroke="white" stroke-width="0.78" stroke-miterlimit="10"/>
<path d="M246.927 92.918V95.019" stroke="white" stroke-width="0.78" stroke-miterlimit="10"/>
<path d="M251.283 92.918V96.3439" stroke="white" stroke-width="0.78" stroke-miterlimit="10"/>
<path d="M255.671 92.918V97.1011" stroke="white" stroke-width="0.78" stroke-miterlimit="10"/>
<path d="M260.018 92.918V97.1011" stroke="white" stroke-width="0.78" stroke-miterlimit="10"/>
<path d="M264.405 92.918V97.1011" stroke="white" stroke-width="0.78" stroke-miterlimit="10"/>
<path d="M268.792 92.918V97.1011" stroke="white" stroke-width="0.78" stroke-miterlimit="10"/>
<path d="M273.149 92.918V97.1011" stroke="white" stroke-width="0.78" stroke-miterlimit="10"/>
<path d="M277.536 92.918V97.1011" stroke="white" stroke-width="0.78" stroke-miterlimit="10"/>
<path d="M281.884 92.918V97.1011" stroke="white" stroke-width="0.78" stroke-miterlimit="10"/>
<path d="M286.271 92.918V97.1011" stroke="white" stroke-width="0.78" stroke-miterlimit="10"/>
<path d="M290.657 92.918V97.1011" stroke="white" stroke-width="0.78" stroke-miterlimit="10"/>
<path d="M295.015 92.918V97.1011" stroke="white" stroke-width="0.78" stroke-miterlimit="10"/>
<path d="M299.401 92.918V97.1011" stroke="white" stroke-width="0.78" stroke-miterlimit="10"/>
<path d="M303.789 92.918V97.1011" stroke="white" stroke-width="0.78" stroke-miterlimit="10"/>
<path d="M342.723 94.6973H245.938" stroke="white" stroke-width="0.78" stroke-miterlimit="10"/>
<path d="M241.87 92.3409V13.0322H235.104V87.6468" stroke="white" stroke-width="0.78" stroke-miterlimit="10"/>
<path d="M345.641 92.5293H241.87" stroke="white" stroke-width="0.78" stroke-miterlimit="10"/>
<path d="M136.669 72.002V76.9327" stroke="white" stroke-width="0.78" stroke-miterlimit="10"/>
<path d="M141.057 72.002V76.9327" stroke="white" stroke-width="0.78" stroke-miterlimit="10"/>
<path d="M145.414 72.002V76.9327" stroke="white" stroke-width="0.78" stroke-miterlimit="10"/>
<path d="M149.801 72.002V76.9327" stroke="white" stroke-width="0.78" stroke-miterlimit="10"/>
<path d="M154.158 72.002V76.9327" stroke="white" stroke-width="0.78" stroke-miterlimit="10"/>
<path d="M158.545 72.002V76.9327" stroke="white" stroke-width="0.78" stroke-miterlimit="10"/>
<path d="M162.922 72.002V76.9327" stroke="white" stroke-width="0.78" stroke-miterlimit="10"/>
<path d="M167.279 72.002V76.9327" stroke="white" stroke-width="0.78" stroke-miterlimit="10"/>
<path d="M171.666 72.002V76.9327" stroke="white" stroke-width="0.78" stroke-miterlimit="10"/>
<path d="M189.145 72.3916V76.9343" stroke="white" stroke-width="0.78" stroke-miterlimit="10"/>
<path d="M193.532 72.002V76.9327" stroke="white" stroke-width="0.78" stroke-miterlimit="10"/>
<path d="M197.919 72.3916V76.5747" stroke="white" stroke-width="0.78" stroke-miterlimit="10"/>
<path d="M202.276 72.002V76.5731" stroke="white" stroke-width="0.78" stroke-miterlimit="10"/>
<path d="M206.663 72.3916V76.5747" stroke="white" stroke-width="0.78" stroke-miterlimit="10"/>
<path d="M211.04 72.1445V76.9333" stroke="white" stroke-width="0.78" stroke-miterlimit="10"/>
<path d="M215.397 72.1445V76.9333" stroke="white" stroke-width="0.78" stroke-miterlimit="10"/>
<path d="M219.784 72.1445V76.9333" stroke="white" stroke-width="0.78" stroke-miterlimit="10"/>
<path d="M224.142 72.1445V76.9333" stroke="white" stroke-width="0.78" stroke-miterlimit="10"/>
<path d="M228.528 72.002V77.264" stroke="white" stroke-width="0.78" stroke-miterlimit="10"/>
<path d="M176.023 72.002V76.9327" stroke="white" stroke-width="0.78" stroke-miterlimit="10"/>
<path d="M180.41 72.002V76.9327" stroke="white" stroke-width="0.78" stroke-miterlimit="10"/>
<path d="M184.798 72.002V76.9327" stroke="white" stroke-width="0.78" stroke-miterlimit="10"/>
<path d="M189.145 72.002V76.9327" stroke="white" stroke-width="0.78" stroke-miterlimit="10"/>
<path d="M228.299 74.1699H132.322" stroke="white" stroke-width="0.78" stroke-miterlimit="10"/>
<path d="M228.808 72.002H132.322" stroke="white" stroke-width="0.78" stroke-miterlimit="10"/>
<path d="M124.408 42.0205H121.479V44.396H124.408V42.0205Z" stroke="white" stroke-width="0.78" stroke-miterlimit="10"/>
<path d="M115.484 42.0205H112.556V44.396H115.484V42.0205Z" stroke="white" stroke-width="0.78" stroke-miterlimit="10"/>
<path d="M102.312 49.7246H99.834V55.6586H102.312V49.7246Z" stroke="white" stroke-width="0.78" stroke-miterlimit="10"/>
<path d="M130.444 36.7201V32.5654H125.457V36.9" stroke="white" stroke-width="0.78" stroke-miterlimit="10"/>
<path d="M122.119 36.721V33.1436" stroke="white" stroke-width="0.78" stroke-miterlimit="10"/>
<path d="M104.601 17.5752H107.119" stroke="white" stroke-width="0.78" stroke-miterlimit="10"/>
<path d="M104.601 21.7295H107.119" stroke="white" stroke-width="0.78" stroke-miterlimit="10"/>
<path d="M104.601 25.8555H107.119" stroke="white" stroke-width="0.78" stroke-miterlimit="10"/>
<path d="M104.601 30.0098H107.119" stroke="white" stroke-width="0.78" stroke-miterlimit="10"/>
<path d="M104.601 15.9854V33.7399H107.119" stroke="white" stroke-width="0.78" stroke-miterlimit="10"/>
<path d="M118.592 12.8525H101.713V16.1933H118.592V12.8525Z" stroke="white" stroke-width="0.78" stroke-miterlimit="10"/>
<path d="M101.303 3.16113V12.8523" stroke="white" stroke-width="0.78" stroke-miterlimit="10"/>
<path d="M125.457 12.6445H97.3252" stroke="white" stroke-width="0.78" stroke-miterlimit="10"/>
<path d="M118.371 6.14258V12.8526" stroke="white" stroke-width="0.78" stroke-miterlimit="10"/>
<path d="M104.83 9.69141H107.748" stroke="white" stroke-width="0.78" stroke-miterlimit="10"/>
<path d="M104.601 12.8517V0.813477" stroke="white" stroke-width="0.78" stroke-miterlimit="10"/>
<path d="M107.749 0V12.644" stroke="white" stroke-width="0.78" stroke-miterlimit="10"/>
<path d="M106.929 36.5127V16.1934" stroke="white" stroke-width="0.78" stroke-miterlimit="10"/>
<path d="M110.677 36.7202V15.8047" stroke="white" stroke-width="0.78" stroke-miterlimit="10"/>
<path d="M113.984 24.8623V36.7208" stroke="white" stroke-width="0.78" stroke-miterlimit="10"/>
<path d="M116.902 24.4736V36.8999" stroke="white" stroke-width="0.78" stroke-miterlimit="10"/>
<path d="M101.903 40.459L92.6289 55.8381" stroke="white" stroke-width="0.78" stroke-miterlimit="10"/>
<path d="M105.05 40.0615L95.3867 55.8381" stroke="white" stroke-width="0.78" stroke-miterlimit="10"/>
<path d="M128.565 40.2412L126.276 46.1752" stroke="white" stroke-width="0.78" stroke-miterlimit="10"/>
<path d="M127.525 25.4678V32.5658" stroke="white" stroke-width="0.78" stroke-miterlimit="10"/>
<path d="M97.745 40.2412H135.08L132.572 36.9004H97.745V40.2412ZM97.745 40.2412H96.0861V49.516H84.4238" stroke="white" stroke-width="0.78" stroke-miterlimit="10"/>
<path d="M138.578 56.2262H124.817V49.9326" stroke="white" stroke-width="0.78" stroke-miterlimit="10"/>
<path d="M130.894 51.8066H128.795V53.9739H130.894V51.8066Z" stroke="white" stroke-width="0.78" stroke-miterlimit="10"/>
<path d="M134.641 51.8066H132.542V53.9739H134.641V51.8066Z" stroke="white" stroke-width="0.78" stroke-miterlimit="10"/>
<path d="M115.254 51.5029H110.037V54.0582H115.254V51.5029Z" stroke="white" stroke-width="0.78" stroke-miterlimit="10"/>
<path d="M122.539 51.5029H117.322V54.0582H122.539V51.5029Z" stroke="white" stroke-width="0.78" stroke-miterlimit="10"/>
<path d="M241.62 30.4272L333.819 15.739M242.1 37.9606L333.859 15.7769M245.468 15.9851L338.046 29.8594M245.598 16.0702L337.896 37.6483M337.766 16.8842H334.239V14.8115H337.766M242.1 14.8115H245.178V16.8842H242.1M337.766 37.989H241.88M241.87 45.0018H337.786M361.471 42.3803V34.8848M365.668 41.9639V27.3703M369.096 47.8032H358.763M369.166 51.286H358.902M355.435 85.8392L361.631 63.3242L348.06 90.893M375.172 80.757L366.118 63.2107L372.414 83.8896M365.828 85.8108V62.7848M365.828 60.6554V51.4469H361.95V60.6554M361.95 62.9078V85.8108M360.451 44.3677H367.027V42.3803H360.451V44.3677ZM360.451 47.7653H367.027V45.6265H360.451V47.7653ZM359.852 62.7848H368.206V60.6459H359.852V62.7848Z" stroke="white" stroke-width="0.78" stroke-miterlimit="10"/>
<path d="M12.9814 68.5669L16.8589 52.6768H22.3852L21.4658 68.4723" stroke="white" stroke-width="0.78" stroke-miterlimit="10"/>
<path d="M12.9814 68.5674V76.7538" stroke="white" stroke-width="0.78" stroke-miterlimit="10"/>
<path d="M19.5566 68.5674V76.7538" stroke="white" stroke-width="0.78" stroke-miterlimit="10"/>
<path d="M26.1328 68.5674V76.7538" stroke="white" stroke-width="0.78" stroke-miterlimit="10"/>
<path d="M32.7188 68.5674V76.7538" stroke="white" stroke-width="0.78" stroke-miterlimit="10"/>
<path d="M39.2939 68.5674V76.7538" stroke="white" stroke-width="0.78" stroke-miterlimit="10"/>
<path d="M45.8691 68.5674V76.7538" stroke="white" stroke-width="0.78" stroke-miterlimit="10"/>
<path d="M52.4551 68.5674V76.7538" stroke="white" stroke-width="0.78" stroke-miterlimit="10"/>
<path d="M59.6309 68.4726C61.7594 68.4726 63.5083 66.8164 63.5083 64.8006L63.6682 22.9316H90.9401L95.9568 45.2384" stroke="white" stroke-width="0.78" stroke-miterlimit="10"/>
<path d="M206.663 66.3711H197.919V76.933H206.663V66.3711Z" stroke="white" stroke-width="0.78" stroke-miterlimit="10"/>
<path d="M315.042 83.4351V79.252H294.665V83.4351" stroke="white" stroke-width="0.78" stroke-miterlimit="10"/>
<path d="M315.042 79.0432V74.8223H294.665V79.0432" stroke="white" stroke-width="0.78" stroke-miterlimit="10"/>
<path d="M307.316 83.4639H286.939V87.7416H307.316V83.4639Z" stroke="white" stroke-width="0.78" stroke-miterlimit="10"/>
<path d="M307.287 90.9307V87.7129H286.91V92.5301" stroke="white" stroke-width="0.78" stroke-miterlimit="10"/>
<path d="M27.9814 68.5669L31.8589 52.6768H37.3852L36.4658 68.4723" stroke="white" stroke-width="0.78" stroke-miterlimit="10"/>
</svg>
